<svg width="49" height="51" fill="none" xmlns="http://www.w3.org/2000/svg"><path d="M15.85 47.652c-1.779 0-3.477-.404-5.013-1.294L6.39 43.933C2.266 41.668.083 36.492.972 30.914l1.617-11.24c.243-1.698 1.375-3.315 2.83-3.962 1.132-.566 2.345-.566 3.315 0 .97.566 1.617 1.617 1.698 2.83l.243 2.588 9.218-16.657c1.132-2.102 3.477-2.992 5.255-2.021.647.323 1.132.89 1.375 1.617l.566-1.051c.566-1.051 1.455-1.86 2.426-2.264a3.412 3.412 0 013.072.08c.89.486 1.537 1.456 1.698 2.588.162 1.051-.08 2.264-.646 3.315l-.405.647c.809-.162 1.617-.08 2.264.323 1.86 1.052 2.345 3.639 1.132 5.822l-1.374 2.426c.808-.162 1.617-.081 2.264.323.889.485 1.536 1.456 1.698 2.588.161 1.05-.081 2.264-.647 3.315l-7.843 14.23c-1.537 2.75-3.396 5.176-5.66 7.278-2.669 2.587-5.984 3.962-9.218 3.962zM7.198 16.926c-.323 0-.647.081-.97.243-.97.485-1.78 1.617-1.94 2.749L2.67 31.157c-.728 4.932 1.132 9.46 4.609 11.4l4.447 2.427c3.72 2.021 8.652 1.05 12.533-2.507 2.102-1.94 3.962-4.285 5.337-6.873l7.843-14.23c.404-.728.566-1.537.404-2.265-.08-.647-.404-1.132-.89-1.374-.485-.243-1.05-.243-1.697 0-.647.242-1.294.808-1.698 1.536l-5.741 10.35c-.243.404-.728.566-1.132.323-.405-.242-.566-.727-.324-1.132l8.895-16.09c.808-1.456.566-3.073-.486-3.639-1.05-.566-2.506.08-3.315 1.536l-8.894 16.09c-.243.405-.728.567-1.132.324-.404-.242-.566-.727-.323-1.132L30 9.811V9.73l2.183-3.881c.404-.728.566-1.537.404-2.264-.08-.647-.404-1.132-.89-1.375-.484-.242-1.05-.242-1.697 0-.647.243-1.294.809-1.698 1.536L17.467 23.88c-.243.404-.728.566-1.132.323-.404-.242-.566-.727-.323-1.132l8.732-15.848c.728-1.293.485-2.83-.404-3.315-.97-.485-2.345.162-3.073 1.456l-10.43 18.92c-.162.324-.566.485-.89.404-.323-.08-.647-.323-.647-.727l-.485-5.256c-.08-.728-.404-1.294-.89-1.617a1.93 1.93 0 00-.727-.162z" fill="#7DBFFB"/><path d="M28.383 46.197l-7.278-7.035c-.97-.89-.97-2.345-.08-3.315.889-.97 2.344-.97 3.315-.08l5.255 5.093-8.166-7.924c-.97-.89-.97-2.345-.081-3.315.89-.97 2.345-.97 3.315-.08l8.167 7.923L22.642 27.6c-.97-.89-.97-2.345-.081-3.316.89-.97 2.345-.97 3.315-.08l10.188 9.864-8.086-7.762c-.89-.809-.89-2.183-.08-3.073.808-.89 2.183-.89 3.072-.08l9.622 9.298-.323-3.558c-.162-1.374.97-2.587 2.425-2.506.97 0 1.78.646 2.103 1.536l2.587 6.792a8.937 8.937 0 01-1.94 9.38l-2.75 2.83c-2.506 2.587-6.307 3.476-9.703 2.183-1.617-.566-3.234-1.618-4.608-2.911z" fill="#fff"/><path d="M36.306 50.644c-1.213 0-2.345-.243-3.477-.647a15.469 15.469 0 01-5.013-3.153l-7.277-7.035c-.566-.566-.97-1.374-.97-2.183 0-.809.323-1.617.889-2.264a2.967 2.967 0 011.374-.809l-.97-.889c-.566-.566-.97-1.375-.97-2.183 0-.809.323-1.617.89-2.264.404-.404.889-.647 1.374-.809h-.081c-.566-.566-.97-1.374-.97-2.183 0-.809.323-1.617.89-2.264.565-.566 1.374-.97 2.182-.97.809 0 1.617.323 2.264.89l.243.242a3.05 3.05 0 01.727-1.213c.566-.566 1.294-.89 2.103-.89.808 0 1.536.243 2.102.81l8.086 7.761-.162-1.374c-.08-.89.243-1.78.809-2.426.566-.647 1.455-.97 2.425-.97 1.294.08 2.345.808 2.83 2.021l2.588 6.792c1.294 3.477.485 7.52-2.102 10.27l-2.75 2.83a9.908 9.908 0 01-7.034 2.91zM22.722 36.009c-.405 0-.809.161-1.132.485-.324.323-.404.647-.404 1.051 0 .404.161.809.485 1.051l7.277 7.035c1.293 1.213 2.749 2.183 4.447 2.83 3.072 1.213 6.55.404 8.813-1.94l2.75-2.83c2.183-2.265 2.83-5.58 1.778-8.572l-2.587-6.792c-.243-.566-.728-.97-1.375-.97-.404 0-.889.162-1.132.485-.323.324-.485.728-.404 1.213l.324 3.558a.89.89 0 01-.486.808c-.323.162-.646.081-.889-.161l-9.703-9.38a1.492 1.492 0 00-.97-.404 1.34 1.34 0 00-.97.404 1.476 1.476 0 000 1.94l8.085 7.763a.782.782 0 010 1.132.782.782 0 01-1.132 0l-8.085-7.762-2.103-2.022c-.323-.323-.647-.404-1.05-.404-.405 0-.81.162-1.052.485-.323.324-.404.647-.404 1.051 0 .405.161.809.485 1.052l2.021 1.94 8.167 7.924a.782.782 0 010 1.132.782.782 0 01-1.132 0l-8.248-7.924c-.323-.242-.646-.404-1.05-.404-.405 0-.81.162-1.052.485-.323.323-.404.647-.404 1.051 0 .404.162.809.485 1.051l2.91 2.83 5.256 5.094a.782.782 0 010 1.132.782.782 0 01-1.131 0l-5.256-5.094c-.324-.162-.728-.323-1.132-.323z" fill="#7DBFFB"/></svg>