<svg width="43" height="53" fill="none" xmlns="http://www.w3.org/2000/svg"><path d="M1.7 28.852v.084c0 2.52 2.02 4.536 4.545 4.536a4.522 4.522 0 004.545-4.536v-.084H1.7zm3.787-11.844L2.541 28.852h7.323L6.918 17.008h-1.43zM41.6 28.768v.084a4.522 4.522 0 01-4.546 4.536 4.522 4.522 0 01-4.546-4.536v-.084H41.6z" stroke="#7DBFFB" stroke-width="1.8" stroke-miterlimit="10" stroke-linecap="round" stroke-linejoin="round"/><path d="M37.727 16.924l2.946 11.844h-7.239l2.946-11.844h1.347z" stroke="#7DBFFB" stroke-width="1.8" stroke-miterlimit="10" stroke-linecap="round" stroke-linejoin="round"/><path d="M33.013 13.648a4.343 4.343 0 01-4.377-4.368 5.276 5.276 0 00-5.303-5.292H20.05a5.276 5.276 0 00-5.303 5.292 4.343 4.343 0 01-4.377 4.368H1.783v3.276h11.112a5.455 5.455 0 005.471-5.46c0-.252.169-.42.421-.42h6.145c.253 0 .421.168.421.42a5.455 5.455 0 005.471 5.46H41.6v-3.276h-8.586z" stroke="#7DBFFB" stroke-width="1.8" stroke-miterlimit="10" stroke-linecap="round" stroke-linejoin="round"/><path d="M21.65 9.448a1.513 1.513 0 10-.001-3.024c-.837 0-1.515.677-1.515 1.512s.678 1.512 1.515 1.512zm1.935-5.46h-3.872v-.756c0-1.092.842-1.932 1.936-1.932 1.095 0 1.936.84 1.936 1.932v.756zm0 7.224h-3.872V46.66h3.872V11.212zM28.13 48.76H15.169l.589-2.1h11.616l.758 2.1zm4.125 0H11.043v2.94h21.212v-2.94z" stroke="#7DBFFB" stroke-width="1.8" stroke-miterlimit="10" stroke-linecap="round" stroke-linejoin="round"/></svg>