<svg width="40" height="36" fill="none" xmlns="http://www.w3.org/2000/svg"><path d="M25.845 12.705c6.252 0 11.34 5.088 11.34 11.34 0 1.963-.49 3.802-1.348 5.395l2.574 4.905-5.149-1.717c-1.962 1.717-4.536 2.697-7.356 2.697-6.253 0-11.341-5.088-11.341-11.34-.061-6.192 5.027-11.28 11.28-11.28z" fill="#fff"/><path d="M25.845 36c-6.56 0-11.954-5.334-11.954-11.954a11.93 11.93 0 0111.954-11.954 11.93 11.93 0 0111.953 11.954c0 1.9-.429 3.74-1.287 5.394l2.452 4.66c.123.244.061.49-.061.673a.692.692 0 01-.675.184l-4.842-1.593A12.01 12.01 0 0125.845 36zm0-22.682c-5.886 0-10.728 4.781-10.728 10.728 0 5.885 4.781 10.727 10.727 10.727 2.575 0 5.027-.92 6.989-2.574.184-.123.368-.184.613-.123l3.74 1.226-1.901-3.555a.46.46 0 010-.552c.858-1.532 1.287-3.31 1.287-5.15 0-5.884-4.843-10.727-10.728-10.727z" fill="#7DBFFB"/><path d="M16.528.813C9.049.813 2.98 6.882 2.98 14.361c0 2.33.613 4.536 1.655 6.436L1.57 26.682l6.192-2.084c2.39 2.023 5.456 3.25 8.766 3.25 7.479 0 13.548-6.07 13.548-13.549 0-7.417-6.07-13.486-13.548-13.486z" fill="#fff"/><path d="M16.528 28.46a13.863 13.863 0 01-8.89-3.188l-5.823 1.962a.692.692 0 01-.674-.184.557.557 0 01-.061-.674l2.942-5.579C2.98 18.835 2.49 16.567 2.49 14.36 2.49 6.575 8.804.2 16.65.2a14.128 14.128 0 0114.161 14.16c0 7.847-6.437 14.1-14.283 14.1zM7.76 23.985c.123 0 .307.061.43.122a12.84 12.84 0 008.398 3.127c7.111 0 12.935-5.763 12.935-12.935 0-7.11-5.763-12.935-12.935-12.935A12.898 12.898 0 003.654 14.3c0 2.146.552 4.291 1.594 6.192a.46.46 0 010 .551l-2.39 4.537 4.72-1.594h.183z" fill="#7DBFFB"/><path d="M21.86 20.245a.556.556 0 01-.429-.183L11.011 9.64a.593.593 0 010-.858.593.593 0 01.857 0L22.29 19.203a.593.593 0 010 .859.556.556 0 01-.43.183z" fill="#7DBFFB"/><path d="M11.44 20.49a.556.556 0 01-.43-.183.593.593 0 010-.858L21.677 8.782a.593.593 0 01.858 0 .593.593 0 010 .858L11.868 20.307a.556.556 0 01-.429.184z" fill="#7DBFFB"/></svg>