<svg width="72" height="72" fill="none" xmlns="http://www.w3.org/2000/svg"><circle cx="36" cy="36" r="36" fill="#F0F3F4"/><path d="M50.944 29.129a.644.644 0 00-.166-.45l-9.39-9.51a.627.627 0 00-.444-.169H23.333c-.722 0-1.333.619-1.333 1.35v32.3c0 .731.611 1.35 1.333 1.35h26.334c.722 0 1.333-.619 1.333-1.35V29.129h-.056zm-9.444-.563v-7.484l7.389 7.484H41.5zM23.167 20.35c0-.057.055-.113.11-.113h17v8.947a.62.62 0 00.612.619h8.833V52.65c0 .056-.055.112-.11.112H23.277c-.056 0-.111-.056-.111-.112v-32.3z" fill="#333"/><path d="M27.333 38.47h19.723c.444 0 .833-.338.833-.732 0-.394-.389-.732-.833-.732H27.333c-.444 0-.833.338-.833.732 0 .394.333.731.833.731zm0 3.432h19.723c.444 0 .833-.338.833-.732 0-.394-.389-.731-.833-.731H27.333c-.444 0-.833.337-.833.731 0 .394.333.732.833.732zm0 3.432h19.723c.444 0 .833-.337.833-.731 0-.394-.389-.732-.833-.732H27.333c-.444 0-.833.338-.833.732 0 .394.333.731.833.731zm3.611-11.479c2.223 0 4-1.8 4-4.051 0-2.25-1.777-4.052-4-4.052-2.222 0-4 1.801-4 4.052 0 2.25 1.778 4.051 4 4.051zm-2.666-4.051c0-1.52 1.222-2.757 2.722-2.757s2.722 1.238 2.722 2.757c0 1.52-1.222 2.757-2.722 2.757s-2.722-1.238-2.722-2.757z" fill="#333"/></svg>