<svg width="72" height="72" fill="none" xmlns="http://www.w3.org/2000/svg"><circle cx="36" cy="36" r="36" fill="#F0F3F4"/><path d="M35.91 23.05c-.353-.174-.765-.116-.942.231l-6.012 9.777c-.177.347-.118.752.236.925.118.058.236.116.354.116a.65.65 0 00.589-.347l6.011-9.777c.236-.347.118-.752-.235-.925zm.06 10.818c-1.415 0-2.535-1.1-2.535-2.488s1.12-2.487 2.535-2.487c1.414 0 2.534 1.099 2.534 2.487 0 1.389-1.12 2.488-2.534 2.488zm0-4.166c-.943 0-1.65.752-1.65 1.62 0 .868.766 1.62 1.65 1.62.884 0 1.65-.752 1.65-1.62 0-.867-.707-1.62-1.65-1.62z" fill="#333"/><path d="M35.97 33.694c-1.297 0-2.358-1.041-2.358-2.314 0-1.273 1.061-2.314 2.358-2.314 1.296 0 2.357 1.041 2.357 2.314.059 1.215-1.002 2.314-2.357 2.314zm0-4.165c-1.002 0-1.828.81-1.828 1.793 0 .984.826 1.794 1.828 1.794 1.002 0 1.827-.81 1.827-1.794.059-.983-.767-1.793-1.827-1.793z" fill="#333"/><path d="M35.97 34.1c-1.533 0-2.83-1.216-2.83-2.778s1.238-2.776 2.83-2.776c1.532 0 2.828 1.214 2.828 2.776 0 1.562-1.237 2.777-2.828 2.777zm0-4.166c-.767 0-1.415.636-1.415 1.388 0 .752.648 1.389 1.415 1.389.766 0 1.414-.637 1.414-1.389s-.59-1.388-1.414-1.388zm-6.307-1.736c-1.414 0-2.534-1.099-2.534-2.487 0-1.389 1.12-2.488 2.534-2.488 1.415 0 2.535 1.1 2.535 2.488s-1.12 2.487-2.535 2.487zm0-4.165c-.942 0-1.65.752-1.65 1.62 0 .868.766 1.62 1.65 1.62.884 0 1.65-.752 1.65-1.62 0-.868-.765-1.62-1.65-1.62z" fill="#333"/><path d="M29.663 28.025c-1.296 0-2.357-1.041-2.357-2.314 0-1.273 1.06-2.314 2.357-2.314 1.297 0 2.358 1.041 2.358 2.314 0 1.273-1.06 2.314-2.358 2.314zm0-4.165c-1.001 0-1.826.81-1.826 1.793 0 .983.825 1.793 1.826 1.793 1.002 0 1.828-.81 1.828-1.793 0-.984-.826-1.793-1.828-1.793z" fill="#333"/><path d="M29.663 28.488c-1.532 0-2.828-1.215-2.828-2.777s1.237-2.777 2.828-2.777c1.592 0 2.83 1.215 2.83 2.777s-1.297 2.777-2.83 2.777zm0-4.166c-.766 0-1.414.637-1.414 1.389s.648 1.388 1.415 1.388c.766 0 1.414-.636 1.414-1.388 0-.752-.648-1.389-1.415-1.389z" fill="#333"/><path d="M44.692 38.09V19H21v31.066C21 52.264 22.827 54 25.008 54h23.397l-.059-.058c2.063-.347 3.654-2.14 3.654-4.28V38.09h-7.308zm2.947 14.522c-1.65 0-3.006-1.331-3.006-2.95l.059-10.24h5.953v10.24c0 1.619-1.356 2.95-3.006 2.95zM22.414 20.388h20.864v18.108l-.06 11.165c0 1.1.413 2.14 1.18 2.95h-19.39a2.604 2.604 0 01-2.593-2.603v-29.62z" fill="#333"/><path d="M25.48 41.736h14.792c.412 0 .707-.29.707-.695 0-.405-.295-.694-.707-.694H25.479c-.412 0-.707.29-.707.694 0 .405.354.695.707.695zm0 3.471h14.792c.412 0 .707-.29.707-.695 0-.405-.295-.694-.707-.694H25.479c-.412 0-.707.29-.707.694 0 .405.354.695.707.695zm0 3.529h14.792c.412 0 .707-.29.707-.695 0-.405-.295-.694-.707-.694H25.479c-.412 0-.707.29-.707.694 0 .405.354.695.707.695z" fill="#333"/></svg>