<svg width="72" height="72" fill="none" xmlns="http://www.w3.org/2000/svg"><circle cx="36" cy="36" r="36" fill="#F0F3F4"/><path d="M49.85 25.85H23.225c-.45 0-.825.3-.825.675 0 .375.375.675.825.675H49.85c.45 0 .825-.3.825-.675 0-.375-.375-.675-.825-.675zm0 4.575H23.225c-.45 0-.825.3-.825.675 0 .375.375.675.825.675H49.85c.45 0 .825-.3.825-.675 0-.375-.375-.675-.825-.675zm0 4.575H23.225c-.45 0-.825.3-.825.675 0 .375.375.675.825.675H49.85c.45 0 .825-.3.825-.675 0-.375-.375-.675-.825-.675z" fill="#333"/><path d="M56.225 17.75h-39.45a3.521 3.521 0 00-3.525 3.525v20.25a3.521 3.521 0 003.525 3.525h30l4.425 10.8 4.425-10.8h.525a3.52 3.52 0 003.525-3.525v-20.25c.075-1.95-1.5-3.525-3.45-3.525zm2.025 23.775c0 1.125-.9 2.025-2.025 2.025H54.65l-3.45 8.4-3.45-8.4H16.775c-1.125 0-2.025-.9-2.025-2.025v-20.25c0-1.125.9-2.025 2.025-2.025h39.45c1.125 0 2.025.9 2.025 2.025v20.25z" fill="#333"/></svg>