<svg width="72" height="72" fill="none" xmlns="http://www.w3.org/2000/svg"><circle cx="36" cy="36" r="36" fill="#F0F3F4"/><path d="M30.72 39.052a.655.655 0 00-.657.65c0 .324.329.649.658.649h1.448v3.117c0 .39.329.649.658.649s.658-.325.658-.65v-3.116h4.212a.655.655 0 00.658-.65c0-.324-.33-.649-.658-.649h-4.212V37.3h4.607c2.5 0 4.54-2.013 4.54-4.48 0-2.468-2.04-4.481-4.54-4.481h-5.265a.655.655 0 00-.658.65v6.947H30.72a.655.655 0 00-.659.65c0 .39.33.649.659.649h1.448v1.753H30.72v.065zm2.83-3.117v-6.298h4.607c1.777 0 3.16 1.428 3.16 3.116 0 1.689-1.449 3.117-3.16 3.117h-4.606v.065z" fill="#333"/><path d="M35.59 50.286c7.831 0 14.28-6.299 14.28-14.09 0-7.728-6.383-14.091-14.28-14.091-7.898 0-14.281 6.298-14.281 14.09.065 7.792 6.45 14.091 14.28 14.091zm-12.9-14.09c0-7.014 5.792-12.728 12.9-12.728 7.107 0 12.899 5.714 12.899 12.727s-5.792 12.727-12.9 12.727c-7.107.065-12.898-5.714-12.898-12.727z" fill="#333"/><path d="M48.819 21.26l5.2 1.364c.197.065.328 0 .526-.065a.667.667 0 00.329-.39c.066-.195 0-.324-.066-.52a.672.672 0 00-.395-.324l-7.832-2.078c-.131-.065-.263 0-.395 0-3.158-1.948-6.778-2.922-10.53-2.922-11.056 0-20.072 8.896-20.072 19.805 0 5.26 2.106 10.26 5.923 14.026l-5.133-1.364c-.33-.065-.724.13-.79.455-.066.195 0 .325.066.52.066.13.197.26.395.324l7.765 2.078C27.298 54.702 31.38 56 35.657 56c11.056 0 20.072-8.896 20.072-19.805-.066-5.714-2.632-11.169-6.91-14.935zM35.59 17.69c3.62 0 7.173 1.039 10.266 2.987l1.909 7.143c.066.324.46.52.79.454.329-.065.592-.454.46-.78l-1.513-5.583c4.278 3.506 6.844 8.766 6.844 14.285 0 10.195-8.424 18.507-18.756 18.507-4.015 0-7.832-1.234-11.057-3.572l-2.04-7.532c-.066-.325-.46-.52-.79-.455-.329.065-.592.455-.46.78l1.513 5.779c-3.817-3.507-5.988-8.377-5.988-13.507C16.834 26 25.259 17.69 35.59 17.69z" fill="#333"/></svg>