<svg width="72" height="72" fill="none" xmlns="http://www.w3.org/2000/svg"><circle cx="36" cy="36" r="36" fill="#F0F3F4"/><path d="M51.637 35.753v.747c0 2.58-.678 5.159-1.968 7.399-.136.204-.272.475-.475.747l-3.259-2.512-.407.611a10.683 10.683 0 01-5.362 4.073l-.747-2.444-.204-.679-.679.136c-.678.204-1.357.272-2.036.272a7.59 7.59 0 01-7.603-7.603c0-2.919 1.697-5.634 4.345-6.856l.61-.34-.203-.407-1.018-2.58c1.222-.474 2.58-.746 3.869-.746h.747V16H36.5C25.164 16 16 25.232 16 36.5S25.232 57 36.5 57 57 47.768 57 36.5v-.747h-5.363zm-24.165.815a9.096 9.096 0 009.096 9.096c.543 0 1.086-.068 1.63-.136l.542 1.765a11.76 11.76 0 01-2.172.204 10.922 10.922 0 01-10.929-10.93c0-4.004 2.172-7.67 5.634-9.57l.679 1.697c-2.715 1.629-4.48 4.616-4.48 7.874zm9.164 15.002c-8.282 0-15.07-6.72-15.07-15.07 0-7.942 6.313-14.594 14.255-15.002v2.58c-6.516.407-11.675 5.905-11.675 12.422 0 6.856 5.566 12.49 12.49 12.49a12.42 12.42 0 009.707-4.684l2.036 1.562c-2.85 3.597-7.195 5.701-11.743 5.701zm-.816-34.01v2.376c-8.756.407-15.816 7.738-15.816 16.563 0 9.164 7.467 16.563 16.563 16.563 5.973 0 11.472-3.19 14.39-8.417a16.704 16.704 0 002.173-7.4h2.376c-.408 10.115-8.825 18.193-18.94 18.193-10.453 0-18.938-8.485-18.938-18.939 0-10.114 8.146-18.532 18.192-18.939z" fill="#333"/><path d="M41.591 29.848h.34c-.204.271-.408.475-.611.746-.34.408-.747.883-1.222 1.29l-.272.272h1.697l.068-.068c.883-.883 1.493-1.697 1.9-2.376.408-.679.612-1.358.612-1.969 0-.746-.204-1.29-.611-1.697-.408-.407-1.018-.61-1.697-.61-.68 0-1.222.203-1.63.61-.407.408-.61.95-.61 1.63 0 .61.203 1.154.61 1.56.34.408.815.612 1.426.612zm-.882-2.24c0-.34.067-.68.271-.883.204-.204.407-.271.747-.271s.543.067.747.271c.203.204.271.475.271.815 0 .34-.068.61-.271.814-.204.204-.476.272-.747.272-.34 0-.611-.068-.747-.272-.136-.136-.271-.407-.271-.746zm8.145 4.005c.611-.476.95-1.087.95-1.833 0-.679-.203-1.154-.678-1.63-.475-.407-1.018-.61-1.697-.61h-.272l.068-.95h2.376v-1.087h-3.53l-.203 3.259h.203c.204 0 .407-.068.611-.068h.407c.476 0 .815.068 1.087.271.271.204.339.407.339.747 0 .475-.204.747-.543 1.018-.407.272-.95.407-1.63.407H45.8v1.154h.407c1.154-.067 2.036-.271 2.647-.678zm2.987.543h.679l3.53-5.974v-.679h-.68l-3.529 5.906v.747zm3.123-2.512c-.34 0-.611.136-.815.34-.204.203-.34.542-.34.882 0 .34.136.679.34.882.204.204.475.34.815.34.339 0 .61-.136.814-.34.204-.203.34-.543.34-.882 0-.34-.136-.679-.34-.883a1.124 1.124 0 00-.814-.339zm.203 1.29c0 .136 0 .203-.068.271-.067.068-.067.068-.135.068s-.136 0-.136-.068c-.068-.068-.068-.135-.068-.271s0-.204.068-.272c0 0 .068-.068.136-.068s.135 0 .135.068c.068 0 .068.136.068.272zm-2.24-2.987c.34 0 .611-.136.815-.34.203-.203.271-.542.271-.882 0-.34-.136-.679-.34-.882a1.124 1.124 0 00-.814-.34c-.34 0-.61.136-.814.34-.204.203-.34.543-.34.882 0 .34.136.679.34.883.271.203.543.339.882.339zm-.203-1.222c0-.136 0-.204.067-.271 0 0 .068-.068.136-.068s.136 0 .136.068c.068.067.068.135.068.271s0 .204-.068.272c0 0-.068.068-.136.068s-.136 0-.136-.068c-.067-.068-.067-.136-.067-.272z" fill="#333"/></svg>