<svg width="72" height="72" fill="none" xmlns="http://www.w3.org/2000/svg"><circle cx="36" cy="36" r="36" fill="#F0F3F4"/><path d="M39.53 27.423h9.764c.235 0 .47-.228.47-.512 0-.285-.176-.513-.47-.513H39.53c-.235 0-.47.228-.47.513 0 .284.235.512.47.512zm0 3.414h9.764c.235 0 .47-.227.47-.512 0-.284-.176-.512-.47-.512H39.53c-.235 0-.47.228-.47.512 0 .285.235.512.47.512zm0 3.472h9.764c.235 0 .47-.228.47-.512 0-.285-.176-.512-.47-.512H39.53c-.235 0-.47.227-.47.512 0 .284.235.512.47.512zm4.94-8.707c1.589 0 2.883-1.252 2.883-2.789 0-1.537-1.294-2.789-2.882-2.789-1.589 0-2.883 1.252-2.883 2.789 0 1.537 1.294 2.789 2.883 2.789zm0-4.553c1 0 1.824.797 1.824 1.764 0 .968-.823 1.764-1.823 1.764s-1.824-.797-1.824-1.764.824-1.764 1.824-1.764z" fill="#333"/><path d="M36.353 23.951h-6.647l-.353.057a2.746 2.746 0 00-2.059 1.65l-.235-.17v11.951h-2c-1.647 0-3.059 1.309-3.059 2.96V54h18.53v-4.553h-2.883c.353-.284.647-.74.647-1.252s-.235-.967-.647-1.252h2.882v-1.309h2.177v-7.569h6c1.823 0 3.294-1.423 3.294-3.187V19H36.353v4.951zM36 48.138c0-.341.294-.626.647-.626.353 0 .647.285.647.626a.642.642 0 01-.647.626c-.353.057-.647-.227-.647-.626zm-1.588 0c0 1.195 1 2.163 2.235 2.163h2.941v2.675H23V41.252c.353.854 1.176 1.48 2.176 1.48H39.53v3.244h-2.94c-1.177 0-2.177 1.024-2.177 2.162zm-9.236-8.992h1.883v2.675h-1.883c-.764 0-1.352-.569-1.352-1.309s.588-1.366 1.352-1.366zm2.883 2.675V26.512c.059-.91.882-1.593 1.823-1.593s1.706.683 1.824 1.536v8.935c0 1.48 1.235 2.675 2.823 2.732h7.236v6.602h-1.236V41.82H28.06zm8.235-6.203c-.118.91-.882 1.536-1.823 1.536-1 0-1.824-.796-1.824-1.764v-9.105c-.059-.513-.294-.968-.647-1.366h4.353v1.764l-.059 8.935zM51 19.968v14.967c0 1.252-1.059 2.22-2.294 2.22H36.588c.353-.399.588-.854.647-1.423V20.024H51v-.056z" fill="#333"/></svg>