<svg width="100" height="100" fill="none" xmlns="http://www.w3.org/2000/svg"><circle cx="50" cy="50" r="50" fill="#7DBFFB"/><path d="M54.26 39.845l-14.033 19.59.813.583 14.034-19.591-.813-.582z" fill="#fff"/><path d="M40.7 60.3c-.1 0-.2 0-.3-.1-.2-.2-.3-.5-.1-.8l14-19.6c.2-.2.5-.3.8-.1.2.2.3.5.1.8l-14 19.6c-.2.1-.3.2-.5.2z" fill="#fff"/><path d="M40.7 60.8c-.3 0-.5-.1-.6-.2-.5-.3-.6-1-.2-1.5l14-19.6c.2-.2.4-.4.7-.4.3 0 .6 0 .8.2.5.3.6 1 .2 1.5l-14 19.6c-.2.2-.5.4-.9.4zm14.1-20.6L40.7 59.7v.1l14.1-19.6zM54 60.3c-2.7-.2-4.7-2.6-4.5-5.3.2-2.7 2.6-4.7 5.3-4.5 2.7.2 4.7 2.6 4.5 5.3-.2 2.7-2.6 4.7-5.3 4.5zm.7-8.8c-2.1-.2-4 1.4-4.1 3.5-.1 2.1 1.4 4 3.5 4.1 2.1.2 4-1.4 4.1-3.5.1-2.1-1.4-3.9-3.5-4.1z" fill="#fff"/><path d="M54.4 60.8H54c-3-.2-5.2-2.9-5-5.8.2-3 2.9-5.2 5.8-5 1.4.1 2.8.8 3.7 1.9.9 1.1 1.4 2.5 1.3 4-.3 2.7-2.6 4.9-5.4 4.9zm-.4-1c2.4.2 4.6-1.6 4.8-4.1.1-1.2-.3-2.3-1-3.2-.8-.9-1.8-1.4-3-1.5-2.4-.2-4.6 1.6-4.8 4.1-.2 2.3 1.6 4.5 4 4.7zm.4-.1h-.3c-2.4-.2-4.2-2.3-4-4.7.1-1.2.6-2.2 1.5-3 .9-.8 2-1.1 3.2-1 1.2.1 2.2.6 3 1.5.8.9 1.1 2 1 3.2-.1 1.2-.6 2.2-1.5 3-.9.6-1.9 1-2.9 1zm0-7.7c-.8 0-1.5.3-2.2.8-.7.6-1.1 1.4-1.2 2.3-.1 1.8 1.2 3.4 3.1 3.6.9.1 1.7-.2 2.4-.8.7-.6 1.1-1.4 1.2-2.3.1-.9-.2-1.7-.8-2.4-.6-.7-1.4-1.1-2.3-1.2h-.2zm-12.6-2.6c-2.7-.2-4.7-2.6-4.5-5.3.2-2.7 2.6-4.7 5.3-4.5 2.7.2 4.7 2.6 4.5 5.3-.2 2.7-2.6 4.7-5.3 4.5zm.7-8.7c-2.1-.2-4 1.4-4.1 3.5-.1 2.1 1.4 4 3.5 4.1 2.1.2 4-1.4 4.1-3.5.2-2.1-1.4-3.9-3.5-4.1z" fill="#fff"/><path d="M42.2 49.9h-.4c-3-.2-5.2-2.9-5-5.8.1-1.4.8-2.8 1.9-3.7 1.1-.9 2.5-1.4 4-1.3 3 .2 5.2 2.9 5 5.8-.1 1.4-.8 2.8-1.9 3.7-1.1.9-2.3 1.3-3.6 1.3zm0-9.8c-2.3 0-4.2 1.8-4.4 4.1-.2 2.4 1.6 4.6 4.1 4.8 1.2.1 2.3-.3 3.2-1 .9-.8 1.4-1.8 1.5-3 .2-2.4-1.6-4.6-4.1-4.8-.1-.1-.2-.1-.3-.1zm0 8.7h-.3c-1.2-.1-2.2-.6-3-1.5-.8-.9-1.1-2-1-3.2.1-1.2.6-2.2 1.5-3 .9-.8 2-1.1 3.2-1 1.2.1 2.2.6 3 1.5.8.9 1.1 2 1 3.2-.3 2.3-2.2 4-4.4 4zm0-7.6c-.8 0-1.5.3-2.2.8-.7.6-1.1 1.4-1.2 2.3-.1.9.2 1.7.8 2.4.6.7 1.4 1.1 2.3 1.2.9.1 1.7-.2 2.4-.8.7-.6 1.1-1.4 1.2-2.3.1-.9-.2-1.7-.8-2.4-.6-.7-1.4-1.1-2.3-1.2h-.2z" fill="#fff"/><path d="M79.3 31.9l-11.5-3.5c-.4-.1-.8 0-1.1.3-.3.3-.4.7-.3 1.1l2.7 11.7c.1.6.8 1 1.3.8.3-.1.5-.2.7-.5.2-.3.2-.5.1-.8l-1.7-7.3c3.6 4.7 5.6 10.4 5.6 16.4C75.1 65 63 77 48.2 77c-14.8 0-26.9-12.1-26.9-26.9 0-14.8 12.1-26.9 26.9-26.9.6 0 1.1-.5 1.1-1.1 0-.6-.5-1.1-1.1-1.1C32.1 21 19 34.1 19 50.2s13.1 29.2 29.2 29.2 29.2-13.1 29.2-29.2c0-6.6-2.3-13.1-6.4-18.2l7.7 2.3c.3.1.6.1.8-.1.3-.1.5-.4.5-.7.2-.8-.1-1.4-.7-1.6z" fill="#fff"/></svg>