<svg width="100" height="100" fill="none" xmlns="http://www.w3.org/2000/svg"><circle cx="50" cy="50" r="50" fill="#7DBFFB"/><path d="M50 20c-16.6 0-30 13.5-30 30s13.5 30 30 30 30-13.5 30-30-13.4-30-30-30zm0 57.9c-15.4 0-27.9-12.5-27.9-27.9 0-15.4 12.5-27.9 27.9-27.9 15.4 0 27.9 12.5 27.9 27.9 0 15.4-12.5 27.9-27.9 27.9z" fill="#fff"/><path d="M50 26c-13.3 0-24.1 10.8-24.1 24.1S36.7 74.2 50 74.2s24.1-10.8 24.1-24.1S63.3 26 50 26zm0 46c-12.1 0-21.9-9.8-21.9-21.9 0-12.1 9.8-21.9 21.9-21.9 12.1 0 21.9 9.8 21.9 21.9 0 12-9.8 21.9-21.9 21.9z" fill="#fff"/><path d="M53.8 38.9h-8c-.6 0-1 .5-1 1v10.7h-2.2c-.6 0-1 .5-1 1 0 .6.5 1 1 1h2.2v2.7h-2.2c-.6 0-1 .5-1 1s.5 1 1 1h2.2v4.8c0 .6.5 1 1 1s1-.5 1-1v-4.5h6.4c.6 0 1-.5 1-1s-.5-1-1-1h-6.4v-2.7h7c3.8 0 6.9-3.1 6.9-6.9 0-3.8-3.1-7.1-6.9-7.1zm4.9 6.9c0 2.7-2.2 4.8-4.8 4.8h-7v-9.7h7c2.6.1 4.8 2.3 4.8 4.9z" fill="#fff"/></svg>