<svg width="100" height="100" fill="none" xmlns="http://www.w3.org/2000/svg"><circle cx="50" cy="50" r="50" fill="#7DBFFB"/><path d="M20 33v33.2h61V33H20zm1.9 31.3V34.9h57.3v29.4H21.9z" fill="#fff"/><path d="M74.1 40c-.7-.7-1-1.5-1-2.4v-.2l.1-1H27.7v1.2c0 1.9-1.5 3.4-3.4 3.4h-.2l-1-.1v17.7l1-.1h.2c1.8 0 3.3 1.4 3.4 3.2v.9h46.2v-.9c.1-1.7 1.3-3 3-3.2l.8-.1V40.8l-1.3.1c-.8.1-1.6-.2-2.3-.9zM29.5 60.8c-.5-2.2-2.3-3.8-4.5-4.1V42.8c2.3-.3 4.2-2.2 4.6-4.5h41.7c.3 2.4 2.3 4.3 4.7 4.5v14c-1.9.5-3.3 2-3.7 3.9H29.5v.1z" fill="#fff"/><path d="M50.5 41.6c-4.4 0-8 3.6-8 8s3.6 8 8 8 8-3.6 8-8-3.6-8-8-8zm0 1.8c3.4 0 6.1 2.8 6.1 6.1s-2.8 6.1-6.1 6.1-6.1-2.8-6.1-6.1 2.7-6.1 6.1-6.1z" fill="#fff"/></svg>