<svg width="100" height="100" fill="none" xmlns="http://www.w3.org/2000/svg"><circle cx="50" cy="50" r="50" fill="#7DBFFB"/><path d="M38.6 57.2c-.6 0-1 .5-1 1s.5 1 1 1h2.1V64c0 .6.5 1 1 1 .6 0 1-.5 1-1v-4.8h6.4c.6 0 1-.5 1-1s-.5-1-1-1h-6.4v-2.7h6.9c3.8 0 6.9-3.1 6.9-6.9 0-3.8-3.1-6.9-6.9-6.9h-7.9c-.6 0-1 .5-1 1v10.6h-2.1c-.6 0-1 .5-1 1s.5 1 1 1h2.1V57h-2.1v.2zm4.2-4.8v-9.6h6.9c2.6 0 4.8 2.2 4.8 4.8 0 2.6-2.2 4.8-4.8 4.8h-6.9z" fill="#fff"/><path d="M47.3 32c-11.5 0-20.9 9.4-20.9 20.9 0 11.5 9.4 20.9 20.9 20.9 11.5 0 20.9-9.4 20.9-20.9 0-11.5-9.4-20.9-20.9-20.9zm0 1.8c10.5 0 19.1 8.6 19.1 19.1 0 10.5-8.6 19.1-19.1 19.1-10.5 0-19.1-8.6-19.1-19.1 0-10.5 8.5-19.1 19.1-19.1z" fill="#fff"/><path d="M53.6 20c-6.4 0-12.6 2.2-17.5 6.3-.1 0-.1.1-.1.2-2.7 1.7-5.1 3.8-7 6.2l-.1.1C23.2 38 20 45.3 20 53c0 15.1 12.3 27.3 27.3 27.3 8.2 0 15.9-3.6 21.1-10 7.8-5.1 12.5-13.7 12.5-23C80.9 32.2 68.7 20 53.6 20zm22.3 29.7c0 3.5-.7 7-2.1 10.2.6-2.3.9-4.6.9-6.9 0-15.1-12.3-27.3-27.3-27.3-3 0-5.9.5-8.7 1.4 3.6-1.9 7.6-2.9 11.8-2.9 13.9 0 25.4 11.4 25.4 25.5zM72.8 53c0 14.1-11.5 25.5-25.5 25.5S21.8 67 21.8 53s11.5-25.5 25.5-25.5S72.8 38.9 72.8 53zm4.9-3.3c0-15.1-12.3-27.3-27.3-27.3-.9 0-1.9 0-2.8.1 2-.5 4-.7 6.1-.7 14.1 0 25.5 11.5 25.5 25.5 0 4.9-1.3 9.6-3.9 13.6 1.5-3.5 2.4-7.3 2.4-11.2z" fill="#fff"/></svg>